<svg width="48" height="48" viewBox="0 0 48 48" fill="none" xmlns="http://www.w3.org/2000/svg">
<rect width="48" height="48" rx="24" fill="#FFF5F5"/>
<path d="M24 15.8072C26.6506 15.8072 27.0121 15.8072 28.0964 15.8072C29.0602 15.8072 29.5422 16.0482 29.9036 16.1687C30.3855 16.4096 30.747 16.5301 31.1084 16.8916C31.4699 17.253 31.7108 17.6145 31.8313 18.0964C31.9518 18.4578 32.0723 18.9398 32.1928 19.9036C32.1928 20.988 32.1928 21.2289 32.1928 24C32.1928 26.7711 32.1928 27.0121 32.1928 28.0964C32.1928 29.0602 31.9518 29.5422 31.8313 29.9036C31.5904 30.3855 31.4699 30.747 31.1084 31.1084C30.747 31.4699 30.3855 31.7108 29.9036 31.8313C29.5422 31.9518 29.0602 32.0723 28.0964 32.1928C27.0121 32.1928 26.7711 32.1928 24 32.1928C21.2289 32.1928 20.988 32.1928 19.9036 32.1928C18.9398 32.1928 18.4578 31.9518 18.0964 31.8313C17.6145 31.5904 17.253 31.4699 16.8916 31.1084C16.5301 30.747 16.2892 30.3855 16.1687 29.9036C16.0482 29.5422 15.9277 29.0602 15.8072 28.0964C15.8072 27.0121 15.8072 26.7711 15.8072 24C15.8072 21.2289 15.8072 20.988 15.8072 19.9036C15.8072 18.9398 16.0482 18.4578 16.1687 18.0964C16.4096 17.6145 16.5301 17.253 16.8916 16.8916C17.253 16.5301 17.6145 16.2892 18.0964 16.1687C18.4578 16.0482 18.9398 15.9277 19.9036 15.8072C20.988 15.8072 21.3494 15.8072 24 15.8072ZM24 14C21.2289 14 20.988 14 19.9036 14C18.8193 14 18.0964 14.241 17.494 14.4819C16.8916 14.7229 16.2892 15.0843 15.6867 15.6867C15.0843 16.2892 14.8434 16.7711 14.4819 17.494C14.241 18.0964 14.1205 18.8193 14 19.9036C14 20.988 14 21.3494 14 24C14 26.7711 14 27.0121 14 28.0964C14 29.1807 14.241 29.9036 14.4819 30.506C14.7229 31.1084 15.0843 31.7108 15.6867 32.3133C16.2892 32.9157 16.7711 33.1566 17.494 33.5181C18.0964 33.759 18.8193 33.8795 19.9036 34C20.988 34 21.3494 34 24 34C26.6506 34 27.0121 34 28.0964 34C29.1807 34 29.9036 33.759 30.506 33.5181C31.1084 33.2771 31.7108 32.9157 32.3133 32.3133C32.9157 31.7108 33.1566 31.2289 33.5181 30.506C33.759 29.9036 33.8795 29.1807 34 28.0964C34 27.0121 34 26.6506 34 24C34 21.3494 34 20.988 34 19.9036C34 18.8193 33.759 18.0964 33.5181 17.494C33.2771 16.8916 32.9157 16.2892 32.3133 15.6867C31.7108 15.0843 31.2289 14.8434 30.506 14.4819C29.9036 14.241 29.1807 14.1205 28.0964 14C27.0121 14 26.7711 14 24 14Z" fill="#FC6A57"/>
<path d="M24 18.8193C21.1084 18.8193 18.8193 21.1084 18.8193 24C18.8193 26.8916 21.1084 29.1807 24 29.1807C26.8916 29.1807 29.1807 26.8916 29.1807 24C29.1807 21.1084 26.8916 18.8193 24 18.8193ZM24 27.3735C22.1928 27.3735 20.6265 25.9277 20.6265 24C20.6265 22.1928 22.0723 20.6265 24 20.6265C25.8072 20.6265 27.3735 22.0723 27.3735 24C27.3735 25.8072 25.8072 27.3735 24 27.3735Z" fill="#FC6A57"/>
<path d="M29.3012 19.9036C29.9666 19.9036 30.506 19.3642 30.506 18.6988C30.506 18.0334 29.9666 17.494 29.3012 17.494C28.6358 17.494 28.0964 18.0334 28.0964 18.6988C28.0964 19.3642 28.6358 19.9036 29.3012 19.9036Z" fill="#FC6A57"/>
</svg>
